Coordinates
version=1
nRows=10
nColumns=28
inDegrees=yes

Units are S.I. units (second, meters, Newtons, ...)
Angles are in degrees.

endheader
time	pelvis_tilt	pelvis_list	pelvis_rotation	pelvis_tx	pelvis_ty	pelvis_tz	hip_flexion_r	hip_adduction_r	hip_rotation_r	knee_angle_r	ankle_angle_r	subtalar_angle_r	mtp_angle_r	hip_flexion_l	hip_adduction_l	hip_rotation_l	knee_angle_l	socket_flexion	socket_adduction	socket_rotation	socket_tx	socket_ty	socket_tz	foot_flex	lumbar_extension	lumbar_bending	lumbar_rotation
      0.00000000	     -1.15178036	     -7.15395520	     -9.15617132	     -0.90768560	      0.98707767	      0.31798428	    -26.20939373	      8.17296072	      6.68432035	     -1.55206431	     12.08941627	     -1.94383071	      4.88026813	     26.83243309	    -10.75566845	      2.99411827	      1.08211873	      1.62075637	      0.76688681	      3.68642721	      0.00000000	     -0.02632026	      0.00000000	     -0.44438921	    -10.24469859	      5.60241528	     10.47822910
      0.00416667	     -1.22688135	     -7.19590640	     -9.12560520	     -0.90198461	      0.98626786	      0.31761930	    -26.32530791	      8.19013245	      6.73105191	     -1.77709734	     12.03555377	     -1.94431758	      4.87651343	     26.66421235	    -10.69086599	      3.03288214	      1.04761562	      1.59335743	      0.69769879	      3.72034345	      0.00000000	     -0.02676374	      0.00000000	     -0.52586390	    -10.09990892	      5.63906014	     10.48565932
      0.00833333	     -1.26497451	     -7.34817557	     -9.21956101	     -0.89642184	      0.98565552	      0.31732205	    -26.22178439	      8.27548289	      6.61017364	     -2.52411002	     11.75835494	     -2.03831960	      4.86806371	     26.38708517	    -10.78825967	      2.99127147	      1.15112086	      1.56412584	      0.66642489	      3.97125165	      0.00000000	     -0.02699288	      0.00000000	     -1.36791733	    -10.13287394	      5.79295796	     10.54601977
      0.01250000	     -1.34748941	     -7.39200144	     -9.19068923	     -0.89019151	      0.98480917	      0.31692538	    -26.33412228	      8.28918784	      6.66756493	     -2.78358401	     11.71103094	     -2.03502578	      4.87332680	     26.19262032	    -10.71867702	      3.01687921	      1.12213727	      1.53664128	      0.58894006	      4.02898123	      0.00000000	     -0.02758670	      0.00000000	     -1.48574019	     -9.96915907	      5.83791249	     10.56017495
      0.01666667	     -1.41283538	     -7.50743632	     -9.54332520	     -0.88403326	      0.98427244	      0.31700203	    -26.17206553	      8.22217906	      6.69342191	     -3.65725130	     11.63270782	     -1.81290988	      5.23011975	     25.76538125	    -10.89775823	      2.41597511	      1.41332006	      1.56506345	      0.56350184	      4.62382314	      0.00000000	     -0.02800076	      0.00000000	     -2.53061813	     -9.94349305	      5.92109390	     10.96462626
      0.02083333	     -1.45278389	     -7.55437318	     -9.56830142	     -0.87776114	      0.98361928	      0.31666157	    -26.14514913	      8.21483223	      6.60883886	     -4.26744092	     11.36149937	     -1.87068962	      5.25841767	     25.49317116	    -10.85228528	      2.37428447	      1.42604528	      1.53817321	      0.51129484	      4.83608987	      0.00000000	     -0.02842057	      0.00000000	     -2.94882488	     -9.88405484	      5.93541777	     10.99075971
      0.02500000	     -1.51678113	     -7.61569857	     -9.63728152	     -0.87118646	      0.98293771	      0.31631485	    -26.11242740	      8.19435029	      6.53826844	     -4.86803131	     11.14131209	     -1.88294041	      5.36151634	     25.19894845	    -10.83503598	      2.20652542	      1.48679480	      1.51548551	      0.44668963	      5.13085130	      0.00000000	     -0.02902574	      0.00000000	     -3.53310081	     -9.77949193	      5.99615906	     11.05041391
      0.02916667	     -1.58340455	     -7.63533597	     -9.76324587	     -0.86457040	      0.98234764	      0.31615097	    -26.03678175	      8.12130084	      6.52892663	     -5.52860485	     10.91732888	     -1.82015564	      5.58453711	     24.88508712	    -10.81221492	      1.92108423	      1.55025511	      1.49122658	      0.39769895	      5.52005006	      0.00000000	     -0.02958161	      0.00000000	     -4.08943252	     -9.66602984	      5.98145257	     11.17117317
      0.03333333	     -1.64376236	     -7.64785079	     -9.80193797	     -0.85797534	      0.98174459	      0.31578251	    -25.98853878	      8.06304371	      6.56918212	     -6.12404623	     10.65395690	     -1.83060211	      5.63741676	     24.61316247	    -10.73291946	      1.92146457	      1.53365458	      1.47607849	      0.34914563	      5.77209119	      0.00000000	     -0.03021717	      0.00000000	     -4.42538811	     -9.57661788	      5.96295116	     11.19152707
      0.03750000	     -1.73211614	     -7.54423123	    -10.10096387	     -0.85085857	      0.98130675	      0.31587343	    -25.82690079	      7.78284706	      6.53338554	     -6.89113300	     10.37644951	     -1.59390919	      6.44380423	     24.22142792	    -10.65351296	      1.03132034	      1.63571723	      1.42588169	      0.28267395	      6.54013123	      0.00000000	     -0.03088121	      0.00000000	     -5.10993244	     -9.37505789	      5.80882801	     11.53674169
